<svg width="13" height="13" viewBox="0 0 13 13" fill="none" xmlns="http://www.w3.org/2000/svg">
<path d="M8.60288 6.97448C8.40762 7.16974 8.40762 7.48632 8.60288 7.68158C8.79815 7.87685 9.11473 7.87685 9.30999 7.68158L8.60288 6.97448ZM4.53176 2.90335C4.33649 3.09861 4.33649 3.41519 4.53176 3.61046C4.72702 3.80572 5.0436 3.80572 5.23886 3.61046L4.53176 2.90335ZM7.68154 9.31004C7.8768 9.11477 7.8768 8.79819 7.68154 8.60293C7.48628 8.40767 7.1697 8.40767 6.97443 8.60293L7.68154 9.31004ZM3.61041 5.23891C3.80567 5.04365 3.80567 4.72706 3.61041 4.5318C3.41515 4.33654 3.09857 4.33654 2.9033 4.5318L3.61041 5.23891ZM9.82422 5.75314L8.60288 6.97448L9.30999 7.68158L10.5313 6.46025L9.82422 5.75314ZM5.23886 3.61046L6.4602 2.38912L5.75309 1.68201L4.53176 2.90335L5.23886 3.61046ZM6.97443 8.60293L5.75309 9.82427L6.4602 10.5314L7.68154 9.31004L6.97443 8.60293ZM2.38907 6.46025L3.61041 5.23891L2.9033 4.5318L1.68197 5.75314L2.38907 6.46025ZM2.38907 9.82427C1.46012 8.89532 1.46012 7.38919 2.38907 6.46025L1.68197 5.75314C0.362493 7.07261 0.362492 9.2119 1.68197 10.5314L2.38907 9.82427ZM1.68197 10.5314C3.00144 11.8508 5.14073 11.8508 6.4602 10.5314L5.75309 9.82427C4.82415 10.7532 3.31802 10.7532 2.38907 9.82427L1.68197 10.5314ZM9.82422 2.38912C10.7532 3.31807 10.7532 4.82419 9.82422 5.75314L10.5313 6.46025C11.8508 5.14077 11.8508 3.00148 10.5313 1.68201L9.82422 2.38912ZM10.5313 1.68201C9.21186 0.362538 7.07257 0.362538 5.75309 1.68201L6.4602 2.38912C7.38915 1.46017 8.89527 1.46017 9.82422 2.38912L10.5313 1.68201Z" fill="black"/>
<path d="M7.32805 4.88533L4.88538 7.328" stroke="black" stroke-linecap="round" stroke-linejoin="round"/>
</svg>
