<svg width="13" height="13" viewBox="0 0 13 13" fill="none" xmlns="http://www.w3.org/2000/svg">
<path id="first_path" d="M8.6736 7.04519C8.51739 7.2014 8.51739 7.45466 8.6736 7.61087C8.8298 7.76708 9.08307 7.76708 9.23928 7.61087L8.6736 7.04519ZM4.60247 2.97406C4.44626 3.13027 4.44626 3.38354 4.60247 3.53975C4.75868 3.69596 5.01194 3.69596 5.16815 3.53975L4.60247 2.97406ZM7.61083 9.23933C7.76704 9.08312 7.76704 8.82985 7.61083 8.67364C7.45462 8.51743 7.20135 8.51743 7.04514 8.67364L7.61083 9.23933ZM3.5397 5.1682C3.69591 5.01199 3.69591 4.75872 3.5397 4.60251C3.38349 4.4463 3.13022 4.4463 2.97402 4.60251L3.5397 5.1682ZM9.89493 5.82385L8.6736 7.04519L9.23928 7.61087L10.4606 6.38954L9.89493 5.82385ZM5.16815 3.53975L6.38949 2.31841L5.8238 1.75272L4.60247 2.97406L5.16815 3.53975ZM7.04514 8.67364L5.82381 9.89498L6.38949 10.4607L7.61083 9.23933L7.04514 8.67364ZM2.31836 6.38954L3.5397 5.1682L2.97402 4.60251L1.75268 5.82385L2.31836 6.38954ZM2.31836 9.89498C1.35036 8.92698 1.35036 7.35754 2.31836 6.38954L1.75268 5.82385C0.472256 7.10427 0.472256 9.18024 1.75268 10.4607L2.31836 9.89498ZM1.75268 10.4607C3.0331 11.7411 5.10907 11.7411 6.38949 10.4607L5.82381 9.89498C4.8558 10.863 3.28636 10.863 2.31836 9.89498L1.75268 10.4607ZM9.89493 2.31841C10.8629 3.28641 10.8629 4.85585 9.89493 5.82385L10.4606 6.38954C11.741 5.10911 11.741 3.03314 10.4606 1.75272L9.89493 2.31841ZM10.4606 1.75272C9.1802 0.472301 7.10423 0.472301 5.8238 1.75272L6.38949 2.31841C7.35749 1.35041 8.92693 1.35041 9.89493 2.31841L10.4606 1.75272Z" fill="black"/>
<path d="M7.32805 4.88533L4.88538 7.328" stroke="black" stroke-width="0.8" stroke-linecap="round" stroke-linejoin="round"/>
</svg>
