<svg width="20" height="20" viewBox="0 0 20 20" fill="none" xmlns="http://www.w3.org/2000/svg">
<path d="M5.75813 7.55104C6.20978 6.76875 6.86897 6.1266 7.66281 5.69558C8.45666 5.26456 9.35423 5.06146 10.2563 5.10873C11.1584 5.15601 12.0298 5.45182 12.7742 5.96346C13.5187 6.4751 14.1071 7.18264 14.4745 8.00785M4.63159 6.02981L5.07818 7.96425C5.15424 8.29373 5.48299 8.49916 5.81247 8.4231L7.74691 7.97651M14.2418 12.449C13.7902 13.2313 13.131 13.8735 12.3371 14.3045C11.5433 14.7355 10.6457 14.9386 9.74364 14.8913C8.84157 14.8441 7.97014 14.5482 7.2257 14.0366C6.48126 13.525 5.89281 12.8174 5.5254 11.9922M15.3683 13.9703L14.9218 12.0358C14.8457 11.7063 14.5169 11.5009 14.1875 11.577L12.253 12.0236" stroke="#8A8A8A" stroke-linecap="round"/>
</svg>
